<mxfile host="app.diagrams.net" agent="Mozilla/5.0 (Macintosh; Intel Mac OS X 10_15_7) AppleWebKit/605.1.15 (KHTML, like Gecko) Version/18.2 Safari/605.1.15" version="26.0.9">
  <diagram id="C5RBs43oDa-KdzZeNtuy" name="Page-1">
    <mxGraphModel dx="954" dy="647" grid="1" gridSize="10" guides="1" tooltips="1" connect="1" arrows="1" fold="1" page="1" pageScale="1" pageWidth="827" pageHeight="1169" math="0" shadow="0">
      <root>
        <mxCell id="WIyWlLk6GJQsqaUBKTNV-0" />
        <mxCell id="WIyWlLk6GJQsqaUBKTNV-1" parent="WIyWlLk6GJQsqaUBKTNV-0" />
        <mxCell id="7RzYOwCjaWzRddj5WGNA-0" value="start&lt;div&gt;&lt;br&gt;&lt;/div&gt;" style="ellipse;whiteSpace=wrap;html=1;" vertex="1" parent="WIyWlLk6GJQsqaUBKTNV-1">
          <mxGeometry x="240" y="10" width="150" height="60" as="geometry" />
        </mxCell>
        <mxCell id="7RzYOwCjaWzRddj5WGNA-1" value="" style="endArrow=classic;html=1;rounded=0;exitX=0.5;exitY=1;exitDx=0;exitDy=0;" edge="1" parent="WIyWlLk6GJQsqaUBKTNV-1" source="7RzYOwCjaWzRddj5WGNA-0">
          <mxGeometry width="50" height="50" relative="1" as="geometry">
            <mxPoint x="390" y="340" as="sourcePoint" />
            <mxPoint x="315" y="100" as="targetPoint" />
          </mxGeometry>
        </mxCell>
        <mxCell id="7RzYOwCjaWzRddj5WGNA-5" style="edgeStyle=orthogonalEdgeStyle;rounded=0;orthogonalLoop=1;jettySize=auto;html=1;exitX=0.5;exitY=1;exitDx=0;exitDy=0;entryX=0.5;entryY=0;entryDx=0;entryDy=0;" edge="1" parent="WIyWlLk6GJQsqaUBKTNV-1" source="7RzYOwCjaWzRddj5WGNA-2" target="7RzYOwCjaWzRddj5WGNA-8">
          <mxGeometry relative="1" as="geometry">
            <mxPoint x="315" y="200" as="targetPoint" />
          </mxGeometry>
        </mxCell>
        <mxCell id="7RzYOwCjaWzRddj5WGNA-2" value="Declare constant&lt;div&gt;CALORIES_PER_GRAM =9&lt;/div&gt;" style="shape=parallelogram;perimeter=parallelogramPerimeter;whiteSpace=wrap;html=1;fixedSize=1;" vertex="1" parent="WIyWlLk6GJQsqaUBKTNV-1">
          <mxGeometry x="120" y="100" width="410" height="60" as="geometry" />
        </mxCell>
        <mxCell id="7RzYOwCjaWzRddj5WGNA-14" style="edgeStyle=orthogonalEdgeStyle;rounded=0;orthogonalLoop=1;jettySize=auto;html=1;exitX=0.5;exitY=1;exitDx=0;exitDy=0;" edge="1" parent="WIyWlLk6GJQsqaUBKTNV-1" source="7RzYOwCjaWzRddj5WGNA-8">
          <mxGeometry relative="1" as="geometry">
            <mxPoint x="315" y="280" as="targetPoint" />
          </mxGeometry>
        </mxCell>
        <mxCell id="7RzYOwCjaWzRddj5WGNA-8" value="&lt;div style=&quot;text-align: start;&quot;&gt;&lt;font style=&quot;font-size: 12px;&quot;&gt;Input Food_Name&lt;/font&gt;&lt;/div&gt;&lt;div style=&quot;text-align: start;&quot;&gt;&lt;font style=&quot;font-size: 12px;&quot;&gt;Input Fat_Grams&amp;nbsp;&lt;/font&gt;&lt;/div&gt;&lt;div style=&quot;text-align: start;&quot;&gt;&lt;font style=&quot;font-size: 12px;&quot;&gt;Input Number_of_servings&lt;/font&gt;&lt;/div&gt;" style="shape=parallelogram;perimeter=parallelogramPerimeter;whiteSpace=wrap;html=1;fixedSize=1;" vertex="1" parent="WIyWlLk6GJQsqaUBKTNV-1">
          <mxGeometry x="120" y="180" width="400" height="70" as="geometry" />
        </mxCell>
        <mxCell id="7RzYOwCjaWzRddj5WGNA-10" style="edgeStyle=orthogonalEdgeStyle;rounded=0;orthogonalLoop=1;jettySize=auto;html=1;exitX=0.5;exitY=1;exitDx=0;exitDy=0;" edge="1" parent="WIyWlLk6GJQsqaUBKTNV-1" source="7RzYOwCjaWzRddj5WGNA-8" target="7RzYOwCjaWzRddj5WGNA-8">
          <mxGeometry relative="1" as="geometry" />
        </mxCell>
        <mxCell id="7RzYOwCjaWzRddj5WGNA-25" style="edgeStyle=orthogonalEdgeStyle;rounded=0;orthogonalLoop=1;jettySize=auto;html=1;exitX=0.5;exitY=1;exitDx=0;exitDy=0;" edge="1" parent="WIyWlLk6GJQsqaUBKTNV-1" source="7RzYOwCjaWzRddj5WGNA-18">
          <mxGeometry relative="1" as="geometry">
            <mxPoint x="320" y="370" as="targetPoint" />
          </mxGeometry>
        </mxCell>
        <mxCell id="7RzYOwCjaWzRddj5WGNA-18" value="Calculate Total Fat Calories&lt;div&gt;Total_Fat_Calories= Fat_Grams * CALORIES PER GRAM&lt;/div&gt;" style="rounded=1;whiteSpace=wrap;html=1;" vertex="1" parent="WIyWlLk6GJQsqaUBKTNV-1">
          <mxGeometry x="120" y="280" width="400" height="60" as="geometry" />
        </mxCell>
        <mxCell id="7RzYOwCjaWzRddj5WGNA-27" style="edgeStyle=orthogonalEdgeStyle;rounded=0;orthogonalLoop=1;jettySize=auto;html=1;exitX=0.5;exitY=1;exitDx=0;exitDy=0;" edge="1" parent="WIyWlLk6GJQsqaUBKTNV-1" source="7RzYOwCjaWzRddj5WGNA-26">
          <mxGeometry relative="1" as="geometry">
            <mxPoint x="320" y="470" as="targetPoint" />
          </mxGeometry>
        </mxCell>
        <mxCell id="7RzYOwCjaWzRddj5WGNA-26" value="Calculate Fat Calories per serving&amp;nbsp;&lt;div&gt;Fat_Calories_per_serving= Total_fat_Calories / Number_of_servings&lt;/div&gt;" style="rounded=1;whiteSpace=wrap;html=1;" vertex="1" parent="WIyWlLk6GJQsqaUBKTNV-1">
          <mxGeometry x="120" y="380" width="400" height="60" as="geometry" />
        </mxCell>
        <mxCell id="7RzYOwCjaWzRddj5WGNA-30" style="edgeStyle=orthogonalEdgeStyle;rounded=0;orthogonalLoop=1;jettySize=auto;html=1;exitX=0.5;exitY=1;exitDx=0;exitDy=0;" edge="1" parent="WIyWlLk6GJQsqaUBKTNV-1" source="7RzYOwCjaWzRddj5WGNA-29">
          <mxGeometry relative="1" as="geometry">
            <mxPoint x="320" y="570" as="targetPoint" />
          </mxGeometry>
        </mxCell>
        <mxCell id="7RzYOwCjaWzRddj5WGNA-29" value="Display Fat Calories Per Serving and Food Name" style="shape=parallelogram;perimeter=parallelogramPerimeter;whiteSpace=wrap;html=1;fixedSize=1;" vertex="1" parent="WIyWlLk6GJQsqaUBKTNV-1">
          <mxGeometry x="120" y="470" width="400" height="60" as="geometry" />
        </mxCell>
        <mxCell id="7RzYOwCjaWzRddj5WGNA-31" value="End" style="ellipse;whiteSpace=wrap;html=1;" vertex="1" parent="WIyWlLk6GJQsqaUBKTNV-1">
          <mxGeometry x="260" y="570" width="120" height="50" as="geometry" />
        </mxCell>
      </root>
    </mxGraphModel>
  </diagram>
</mxfile>
